<svg width="171" height="94" viewBox="0 0 171 94" fill="none" xmlns="http://www.w3.org/2000/svg">
<g filter="url(#filter0_i_10111_13023)">
<path d="M0 9.2246V96.7268H219.877V33.7645C219.877 28.808 215.859 24.7899 210.903 24.7899H99.743C94.949 24.7899 90.3543 22.8722 86.9827 19.4641L73.2434 5.57581C69.8719 2.16774 65.2772 0.25 60.4832 0.25H8.97459C4.01806 0.25 0 4.26807 0 9.2246Z" fill="#B7E5C7"/>
</g>
<path d="M219.317 96.1659H0.560912V9.2246C0.560912 4.57785 4.32784 0.810912 8.97459 0.810912H60.4832C65.1273 0.810912 69.5785 2.66872 72.8447 5.97029L86.584 19.8586C90.0609 23.3731 94.7992 25.3508 99.743 25.3508H210.903C215.55 25.3508 219.317 29.1177 219.317 33.7645V96.1659Z" stroke="#83A591" stroke-width="1.12182"/>
<g filter="url(#filter1_d_10111_13023)">
<rect x="17.1914" y="18.7905" width="72.9185" height="77.4058" rx="4.50462" transform="rotate(-2.72745 17.1914 18.7905)" fill="#C2EED5"/>
<rect x="17.7806" y="19.3262" width="71.7924" height="76.2797" rx="3.94155" transform="rotate(-2.72745 17.7806 19.3262)" stroke="#2B9A5D" stroke-width="1.12616"/>
</g>
<rect x="24" y="24.1812" width="52.2558" height="7.66836" rx="2.25231" transform="rotate(-3.20427 24 24.1812)" fill="#36CA7C"/>
<rect x="26" y="36.1919" width="52.2558" height="4.06018" rx="2.03009" transform="rotate(-3.22739 26 36.1919)" fill="#36CA7C"/>
<rect x="26" y="41.8364" width="28.1757" height="4.06018" rx="2.03009" transform="rotate(-3.22739 26 41.8364)" fill="#36CA7C"/>
<rect x="26" y="48.1919" width="28.1757" height="4.06018" rx="2.03009" transform="rotate(-3.22739 26 48.1919)" fill="#36CA7C"/>
<g filter="url(#filter2_d_10111_13023)">
<rect x="48.0391" y="31.2256" width="72.9185" height="77.4058" rx="4.50462" transform="rotate(-6.82136 48.0391 31.2256)" fill="#C2EED5"/>
<rect x="48.665" y="31.7178" width="71.7924" height="76.2797" rx="3.94155" transform="rotate(-6.82136 48.665 31.7178)" stroke="#2B9A5D" stroke-width="1.12616"/>
</g>
<rect x="54.3516" y="36.3501" width="52.2558" height="7.66836" rx="2.25231" transform="rotate(-7.71719 54.3516 36.3501)" fill="#36CA7C"/>
<rect x="57.2812" y="48.1567" width="52.2558" height="4.06018" rx="2.03009" transform="rotate(-7.71719 57.2812 48.1567)" fill="#36CA7C"/>
<rect x="57.7266" y="53.7837" width="28.1757" height="4.06018" rx="1" transform="rotate(-7.71719 57.7266 53.7837)" fill="#97A7A6" fill-opacity="0.2"/>
<g filter="url(#filter3_d_10111_13023)">
<rect x="77.5039" y="34.0088" width="72.9185" height="77.4058" rx="4.50462" transform="rotate(-2.72745 77.5039 34.0088)" fill="#C2EED5"/>
<rect x="78.0931" y="34.5444" width="71.7924" height="76.2797" rx="3.94155" transform="rotate(-2.72745 78.0931 34.5444)" stroke="#2B9A5D" stroke-width="1.12616"/>
</g>
<rect x="84" y="38.7021" width="52.2558" height="7.66836" rx="2.25231" transform="rotate(-2.68967 84 38.7021)" fill="#36CA7C"/>
<rect x="85.8906" y="50.7202" width="52.2558" height="4.06018" rx="2.03009" transform="rotate(-2.68967 85.8906 50.7202)" fill="#36CA7C"/>
<g filter="url(#filter4_d_10111_13023)">
<rect x="106.672" y="39.6177" width="72.9185" height="77.4058" rx="4.50462" transform="rotate(-2.72745 106.672 39.6177)" fill="#C2EED5"/>
<rect x="107.261" y="40.1533" width="71.7924" height="76.2797" rx="3.94155" transform="rotate(-2.72745 107.261 40.1533)" stroke="#2B9A5D" stroke-width="1.12616"/>
</g>
<rect x="116" y="46.7021" width="52.2558" height="7.66836" rx="2.25231" transform="rotate(-2.68967 116 46.7021)" fill="#36CA7C"/>
<rect x="0.563078" y="52.8131" width="218.751" height="42.625" rx="3.94155" fill="#C7EED6" stroke="#259052" stroke-width="1.12616"/>
<defs>
<filter id="filter0_i_10111_13023" x="0" y="0.25" width="219.878" height="96.4768" filterUnits="userSpaceOnUse" color-interpolation-filters="sRGB">
<feFlood flood-opacity="0" result="BackgroundImageFix"/>
<feBlend mode="normal" in="SourceGraphic" in2="BackgroundImageFix" result="shape"/>
<feColorMatrix in="SourceAlpha" type="matrix" values="0 0 0 0 0 0 0 0 0 0 0 0 0 0 0 0 0 0 127 0" result="hardAlpha"/>
<feOffset/>
<feGaussianBlur stdDeviation="4.4873"/>
<feComposite in2="hardAlpha" operator="arithmetic" k2="-1" k3="1"/>
<feColorMatrix type="matrix" values="0 0 0 0 0 0 0 0 0 0 0 0 0 0 0 0 0 0 0.02 0"/>
<feBlend mode="normal" in2="shape" result="effect1_innerShadow_10111_13023"/>
</filter>
<filter id="filter1_d_10111_13023" x="7.40039" y="8.52979" width="92.1016" height="96.3696" filterUnits="userSpaceOnUse" color-interpolation-filters="sRGB">
<feFlood flood-opacity="0" result="BackgroundImageFix"/>
<feColorMatrix in="SourceAlpha" type="matrix" values="0 0 0 0 0 0 0 0 0 0 0 0 0 0 0 0 0 0 127 0" result="hardAlpha"/>
<feOffset dx="-2" dy="1"/>
<feGaussianBlur stdDeviation="4"/>
<feComposite in2="hardAlpha" operator="out"/>
<feColorMatrix type="matrix" values="0 0 0 0 0 0 0 0 0 0 0 0 0 0 0 0 0 0 0.04 0"/>
<feBlend mode="normal" in2="BackgroundImageFix" result="effect1_dropShadow_10111_13023"/>
<feBlend mode="normal" in="SourceGraphic" in2="effect1_dropShadow_10111_13023" result="shape"/>
</filter>
<filter id="filter2_d_10111_13023" x="38.542" y="16.0674" width="96.5908" height="100.513" filterUnits="userSpaceOnUse" color-interpolation-filters="sRGB">
<feFlood flood-opacity="0" result="BackgroundImageFix"/>
<feColorMatrix in="SourceAlpha" type="matrix" values="0 0 0 0 0 0 0 0 0 0 0 0 0 0 0 0 0 0 127 0" result="hardAlpha"/>
<feOffset dx="-2" dy="1"/>
<feGaussianBlur stdDeviation="4"/>
<feComposite in2="hardAlpha" operator="out"/>
<feColorMatrix type="matrix" values="0 0 0 0 0 0 0 0 0 0 0 0 0 0 0 0 0 0 0.08 0"/>
<feBlend mode="normal" in2="BackgroundImageFix" result="effect1_dropShadow_10111_13023"/>
<feBlend mode="normal" in="SourceGraphic" in2="effect1_dropShadow_10111_13023" result="shape"/>
</filter>
<filter id="filter3_d_10111_13023" x="67.7129" y="23.748" width="92.1016" height="96.3696" filterUnits="userSpaceOnUse" color-interpolation-filters="sRGB">
<feFlood flood-opacity="0" result="BackgroundImageFix"/>
<feColorMatrix in="SourceAlpha" type="matrix" values="0 0 0 0 0 0 0 0 0 0 0 0 0 0 0 0 0 0 127 0" result="hardAlpha"/>
<feOffset dx="-2" dy="1"/>
<feGaussianBlur stdDeviation="4"/>
<feComposite in2="hardAlpha" operator="out"/>
<feColorMatrix type="matrix" values="0 0 0 0 0 0 0 0 0 0 0 0 0 0 0 0 0 0 0.08 0"/>
<feBlend mode="normal" in2="BackgroundImageFix" result="effect1_dropShadow_10111_13023"/>
<feBlend mode="normal" in="SourceGraphic" in2="effect1_dropShadow_10111_13023" result="shape"/>
</filter>
<filter id="filter4_d_10111_13023" x="96.8809" y="29.3569" width="92.1016" height="96.3696" filterUnits="userSpaceOnUse" color-interpolation-filters="sRGB">
<feFlood flood-opacity="0" result="BackgroundImageFix"/>
<feColorMatrix in="SourceAlpha" type="matrix" values="0 0 0 0 0 0 0 0 0 0 0 0 0 0 0 0 0 0 127 0" result="hardAlpha"/>
<feOffset dx="-2" dy="1"/>
<feGaussianBlur stdDeviation="4"/>
<feComposite in2="hardAlpha" operator="out"/>
<feColorMatrix type="matrix" values="0 0 0 0 0 0 0 0 0 0 0 0 0 0 0 0 0 0 0.08 0"/>
<feBlend mode="normal" in2="BackgroundImageFix" result="effect1_dropShadow_10111_13023"/>
<feBlend mode="normal" in="SourceGraphic" in2="effect1_dropShadow_10111_13023" result="shape"/>
</filter>
</defs>
</svg>
