<svg width="171" height="94" viewBox="0 0 171 94" fill="none" xmlns="http://www.w3.org/2000/svg">
<g filter="url(#filter0_i_10111_12845)">
<path d="M0 8.9746V96.4768H219.877V33.5145C219.877 28.558 215.859 24.5399 210.903 24.5399H99.743C94.949 24.5399 90.3543 22.6222 86.9827 19.2141L73.2434 5.32581C69.8719 1.91774 65.2772 0 60.4832 0H8.97459C4.01806 0 0 4.01807 0 8.9746Z" fill="#FDF6EA"/>
</g>
<path d="M219.317 95.9159H0.560912V8.9746C0.560912 4.32785 4.32784 0.560912 8.97459 0.560912H60.4832C65.1273 0.560912 69.5785 2.41872 72.8447 5.72029L86.584 19.6086C90.0609 23.1231 94.7992 25.1008 99.743 25.1008H210.903C215.55 25.1008 219.317 28.8677 219.317 33.5145V95.9159Z" stroke="#D7D7D7" stroke-width="1.12182"/>
<g filter="url(#filter1_d_10111_12845)">
<rect x="17.1914" y="18.5405" width="72.9185" height="77.4058" rx="4.50462" transform="rotate(-2.72745 17.1914 18.5405)" fill="#FFFCF6"/>
<rect x="17.7806" y="19.0762" width="71.7924" height="76.2797" rx="3.94155" transform="rotate(-2.72745 17.7806 19.0762)" stroke="#97A7A6" stroke-opacity="0.3" stroke-width="1.12616"/>
</g>
<rect x="24" y="23.9312" width="52.2558" height="7.66836" rx="2.25231" transform="rotate(-3.20427 24 23.9312)" fill="#97A7A6" fill-opacity="0.2"/>
<rect x="26" y="35.9419" width="52.2558" height="4.06018" rx="1" transform="rotate(-3.22739 26 35.9419)" fill="#97A7A6" fill-opacity="0.2"/>
<rect x="26" y="41.5864" width="28.1757" height="4.06018" rx="1" transform="rotate(-3.22739 26 41.5864)" fill="#97A7A6" fill-opacity="0.2"/>
<rect x="26" y="47.9419" width="28.1757" height="4.06018" rx="1" transform="rotate(-3.22739 26 47.9419)" fill="#97A7A6" fill-opacity="0.2"/>
<g filter="url(#filter2_d_10111_12845)">
<rect x="48.0391" y="30.9756" width="72.9185" height="77.4058" rx="4.50462" transform="rotate(-6.82136 48.0391 30.9756)" fill="#FFFCF6"/>
<rect x="48.665" y="31.4678" width="71.7924" height="76.2797" rx="3.94155" transform="rotate(-6.82136 48.665 31.4678)" stroke="#97A7A6" stroke-opacity="0.3" stroke-width="1.12616"/>
</g>
<rect x="54.3516" y="36.1001" width="52.2558" height="7.66836" rx="2.25231" transform="rotate(-7.71719 54.3516 36.1001)" fill="#97A7A6" fill-opacity="0.2"/>
<rect x="57.2812" y="47.9067" width="52.2558" height="4.06018" rx="1" transform="rotate(-7.71719 57.2812 47.9067)" fill="#97A7A6" fill-opacity="0.2"/>
<rect x="57.7266" y="53.5337" width="28.1757" height="4.06018" rx="1" transform="rotate(-7.71719 57.7266 53.5337)" fill="#97A7A6" fill-opacity="0.2"/>
<g filter="url(#filter3_d_10111_12845)">
<rect x="77.5039" y="33.7588" width="72.9185" height="77.4058" rx="4.50462" transform="rotate(-2.72745 77.5039 33.7588)" fill="#FFFCF6"/>
<rect x="78.0931" y="34.2944" width="71.7924" height="76.2797" rx="3.94155" transform="rotate(-2.72745 78.0931 34.2944)" stroke="#97A7A6" stroke-opacity="0.3" stroke-width="1.12616"/>
</g>
<rect x="84" y="38.4521" width="52.2558" height="7.66836" rx="2.25231" transform="rotate(-2.68967 84 38.4521)" fill="#97A7A6" fill-opacity="0.2"/>
<rect x="85.8906" y="50.4702" width="52.2558" height="4.06018" rx="1" transform="rotate(-2.68967 85.8906 50.4702)" fill="#97A7A6" fill-opacity="0.2"/>
<g filter="url(#filter4_d_10111_12845)">
<rect x="106.672" y="39.3677" width="72.9185" height="77.4058" rx="4.50462" transform="rotate(-2.72745 106.672 39.3677)" fill="#FFFCF6"/>
<rect x="107.261" y="39.9033" width="71.7924" height="76.2797" rx="3.94155" transform="rotate(-2.72745 107.261 39.9033)" stroke="#97A7A6" stroke-opacity="0.3" stroke-width="1.12616"/>
</g>
<rect x="116" y="46.4521" width="52.2558" height="7.66836" rx="2.25231" transform="rotate(-2.68967 116 46.4521)" fill="#97A7A6" fill-opacity="0.2"/>
<rect y="52" width="219.877" height="43.7511" rx="4.50462" fill="#FFFAF0"/>
<rect x="0.563078" y="52.5631" width="218.751" height="42.625" rx="3.94155" stroke="#97A7A6" stroke-opacity="0.3" stroke-width="1.12616"/>
<defs>
<filter id="filter0_i_10111_12845" x="0" y="0" width="219.878" height="96.4768" filterUnits="userSpaceOnUse" color-interpolation-filters="sRGB">
<feFlood flood-opacity="0" result="BackgroundImageFix"/>
<feBlend mode="normal" in="SourceGraphic" in2="BackgroundImageFix" result="shape"/>
<feColorMatrix in="SourceAlpha" type="matrix" values="0 0 0 0 0 0 0 0 0 0 0 0 0 0 0 0 0 0 127 0" result="hardAlpha"/>
<feOffset/>
<feGaussianBlur stdDeviation="4.4873"/>
<feComposite in2="hardAlpha" operator="arithmetic" k2="-1" k3="1"/>
<feColorMatrix type="matrix" values="0 0 0 0 0 0 0 0 0 0 0 0 0 0 0 0 0 0 0.02 0"/>
<feBlend mode="normal" in2="shape" result="effect1_innerShadow_10111_12845"/>
</filter>
<filter id="filter1_d_10111_12845" x="7.40039" y="8.27979" width="92.1016" height="96.3696" filterUnits="userSpaceOnUse" color-interpolation-filters="sRGB">
<feFlood flood-opacity="0" result="BackgroundImageFix"/>
<feColorMatrix in="SourceAlpha" type="matrix" values="0 0 0 0 0 0 0 0 0 0 0 0 0 0 0 0 0 0 127 0" result="hardAlpha"/>
<feOffset dx="-2" dy="1"/>
<feGaussianBlur stdDeviation="4"/>
<feComposite in2="hardAlpha" operator="out"/>
<feColorMatrix type="matrix" values="0 0 0 0 0 0 0 0 0 0 0 0 0 0 0 0 0 0 0.04 0"/>
<feBlend mode="normal" in2="BackgroundImageFix" result="effect1_dropShadow_10111_12845"/>
<feBlend mode="normal" in="SourceGraphic" in2="effect1_dropShadow_10111_12845" result="shape"/>
</filter>
<filter id="filter2_d_10111_12845" x="38.542" y="15.8174" width="96.5908" height="100.513" filterUnits="userSpaceOnUse" color-interpolation-filters="sRGB">
<feFlood flood-opacity="0" result="BackgroundImageFix"/>
<feColorMatrix in="SourceAlpha" type="matrix" values="0 0 0 0 0 0 0 0 0 0 0 0 0 0 0 0 0 0 127 0" result="hardAlpha"/>
<feOffset dx="-2" dy="1"/>
<feGaussianBlur stdDeviation="4"/>
<feComposite in2="hardAlpha" operator="out"/>
<feColorMatrix type="matrix" values="0 0 0 0 0 0 0 0 0 0 0 0 0 0 0 0 0 0 0.08 0"/>
<feBlend mode="normal" in2="BackgroundImageFix" result="effect1_dropShadow_10111_12845"/>
<feBlend mode="normal" in="SourceGraphic" in2="effect1_dropShadow_10111_12845" result="shape"/>
</filter>
<filter id="filter3_d_10111_12845" x="67.7129" y="23.498" width="92.1016" height="96.3696" filterUnits="userSpaceOnUse" color-interpolation-filters="sRGB">
<feFlood flood-opacity="0" result="BackgroundImageFix"/>
<feColorMatrix in="SourceAlpha" type="matrix" values="0 0 0 0 0 0 0 0 0 0 0 0 0 0 0 0 0 0 127 0" result="hardAlpha"/>
<feOffset dx="-2" dy="1"/>
<feGaussianBlur stdDeviation="4"/>
<feComposite in2="hardAlpha" operator="out"/>
<feColorMatrix type="matrix" values="0 0 0 0 0 0 0 0 0 0 0 0 0 0 0 0 0 0 0.08 0"/>
<feBlend mode="normal" in2="BackgroundImageFix" result="effect1_dropShadow_10111_12845"/>
<feBlend mode="normal" in="SourceGraphic" in2="effect1_dropShadow_10111_12845" result="shape"/>
</filter>
<filter id="filter4_d_10111_12845" x="96.8809" y="29.1069" width="92.1016" height="96.3696" filterUnits="userSpaceOnUse" color-interpolation-filters="sRGB">
<feFlood flood-opacity="0" result="BackgroundImageFix"/>
<feColorMatrix in="SourceAlpha" type="matrix" values="0 0 0 0 0 0 0 0 0 0 0 0 0 0 0 0 0 0 127 0" result="hardAlpha"/>
<feOffset dx="-2" dy="1"/>
<feGaussianBlur stdDeviation="4"/>
<feComposite in2="hardAlpha" operator="out"/>
<feColorMatrix type="matrix" values="0 0 0 0 0 0 0 0 0 0 0 0 0 0 0 0 0 0 0.08 0"/>
<feBlend mode="normal" in2="BackgroundImageFix" result="effect1_dropShadow_10111_12845"/>
<feBlend mode="normal" in="SourceGraphic" in2="effect1_dropShadow_10111_12845" result="shape"/>
</filter>
</defs>
</svg>
