<svg width="176" height="101" viewBox="0 0 176 101" fill="none" xmlns="http://www.w3.org/2000/svg">
<rect x="0.0234375" y="28.1018" width="93.4709" height="110.363" rx="4.50462" transform="rotate(-10.2926 0.0234375 28.1018)" fill="#FAFAFA"/>
<rect x="0.678063" y="28.5552" width="92.3448" height="109.237" rx="3.94155" transform="rotate(-10.2926 0.678063 28.5552)" stroke="#97A7A6" stroke-opacity="0.3" stroke-width="1.12616"/>
<rect x="6.0625" y="35.1128" width="52.2558" height="7.66836" rx="2.25231" transform="rotate(-10.2926 6.0625 35.1128)" fill="#A0A0A0" fill-opacity="0.2"/>
<rect x="9.16016" y="49.8572" width="81.9566" height="4.38221" rx="2.19111" transform="rotate(-10.2926 9.16016 49.8572)" fill="#A0A0A0" fill-opacity="0.2"/>
<rect x="16.7676" y="84.3909" width="81.9566" height="4.38221" rx="2.19111" transform="rotate(-10.2926 16.7676 84.3909)" fill="#A0A0A0" fill-opacity="0.2"/>
<rect x="10.6836" y="56.7957" width="81.9566" height="4.38221" rx="2.19111" transform="rotate(-10.2926 10.6836 56.7957)" fill="#A0A0A0" fill-opacity="0.2"/>
<rect x="18.291" y="91.3291" width="67.4129" height="4.38221" rx="2.19111" transform="rotate(-10.2926 18.291 91.3291)" fill="#A0A0A0" fill-opacity="0.2"/>
<rect x="12.1914" y="63.4778" width="62.3226" height="4.38221" rx="2.19111" transform="rotate(-10.2926 12.1914 63.4778)" fill="#A0A0A0" fill-opacity="0.2"/>
<rect x="19.8008" y="98.0112" width="66.3826" height="4.38221" rx="2.19111" transform="rotate(-10.2926 19.8008 98.0112)" fill="#97A7A6" fill-opacity="0.2"/>
<rect x="13.7012" y="70.1594" width="36.1314" height="4.38221" rx="2.19111" transform="rotate(-10.2926 13.7012 70.1594)" fill="#A0A0A0" fill-opacity="0.2"/>
<rect x="53.6074" y="2.21118" width="93.4709" height="110.363" rx="4.50462" transform="rotate(7.11562 53.6074 2.21118)" fill="#FAFAFA"/>
<rect x="54.0964" y="2.83967" width="92.3448" height="109.237" rx="3.94155" transform="rotate(7.11562 54.0964 2.83967)" stroke="#97A7A6" stroke-opacity="0.3" stroke-width="1.12616"/>
<rect x="57.2734" y="10.7078" width="52.2558" height="7.66836" rx="2.25231" transform="rotate(7.11562 57.2734 10.7078)" fill="#97A7A6" fill-opacity="0.2"/>
<rect x="55.8164" y="25.7036" width="81.9566" height="4.38221" rx="2.19111" transform="rotate(7.11562 55.8164 25.7036)" fill="#97A7A6" fill-opacity="0.2"/>
<rect x="52.7441" y="60.9316" width="81.9566" height="4.38221" rx="2.19111" transform="rotate(7.11562 52.7441 60.9316)" fill="#97A7A6" fill-opacity="0.2"/>
<rect x="55.1953" y="32.78" width="81.9566" height="4.38221" rx="2.19111" transform="rotate(7.11562 55.1953 32.78)" fill="#97A7A6" fill-opacity="0.2"/>
<rect x="52.123" y="68.0083" width="67.4129" height="4.38221" rx="2.19111" transform="rotate(7.11562 52.123 68.0083)" fill="#97A7A6" fill-opacity="0.2"/>
<rect x="54.6367" y="39.6069" width="62.3227" height="4.38221" rx="2.19111" transform="rotate(7.11562 54.6367 39.6069)" fill="#97A7A6" fill-opacity="0.2"/>
<rect x="51.5645" y="74.8354" width="66.3826" height="4.38221" rx="2.19111" transform="rotate(7.11562 51.5645 74.8354)" fill="#97A7A6" fill-opacity="0.2"/>
<rect x="54.0762" y="46.4341" width="36.1314" height="4.38221" rx="2.19111" transform="rotate(7.11562 54.0762 46.4341)" fill="#97A7A6" fill-opacity="0.2"/>
<rect x="115.93" y="-0.202881" width="93.4709" height="110.363" rx="4.50462" transform="rotate(26.9585 115.93 -0.202881)" fill="#FAFAFA"/>
<rect x="116.176" y="0.554279" width="92.3448" height="109.237" rx="3.94155" transform="rotate(26.9585 116.176 0.554279)" stroke="#97A7A6" stroke-opacity="0.3" stroke-width="1.12616"/>
<rect x="116.494" y="9.03418" width="52.2558" height="7.66836" rx="2.25231" transform="rotate(26.9585 116.494 9.03418)" fill="#97A7A6" fill-opacity="0.2"/>
<rect x="110.033" y="22.6445" width="81.9566" height="4.38221" rx="2.19111" transform="rotate(26.9585 110.033 22.6445)" fill="#97A7A6" fill-opacity="0.2"/>
<rect x="95.1855" y="54.7383" width="81.9566" height="4.38221" rx="2.19111" transform="rotate(26.9585 95.1855 54.7383)" fill="#97A7A6" fill-opacity="0.2"/>
<rect x="107.045" y="29.0898" width="81.9566" height="4.38221" rx="2.19111" transform="rotate(26.9585 107.045 29.0898)" fill="#97A7A6" fill-opacity="0.2"/>
<rect x="92.1992" y="61.1836" width="67.4129" height="4.38221" rx="2.19111" transform="rotate(26.9585 92.1992 61.1836)" fill="#97A7A6" fill-opacity="0.2"/>
<rect x="104.201" y="35.3218" width="62.3226" height="4.38221" rx="2.19111" transform="rotate(26.9585 104.201 35.3218)" fill="#97A7A6" fill-opacity="0.2"/>
<rect x="89.3555" y="67.4155" width="66.3826" height="4.38221" rx="2.19111" transform="rotate(26.9585 89.3555 67.4155)" fill="#97A7A6" fill-opacity="0.2"/>
<rect x="101.357" y="41.5532" width="36.1314" height="4.38221" rx="2.19111" transform="rotate(26.9585 101.357 41.5532)" fill="#97A7A6" fill-opacity="0.2"/>
</svg>
