<svg width="176" height="101" viewBox="0 0 176 101" fill="none" xmlns="http://www.w3.org/2000/svg">
<rect x="0.678063" y="28.8052" width="92.3448" height="109.237" rx="3.94155" transform="rotate(-10.2926 0.678063 28.8052)" fill="#BDEDD5" stroke="#27955B" stroke-width="1.12616"/>
<rect x="6.0625" y="35.3628" width="52.2558" height="7.66836" rx="2.25231" transform="rotate(-10.2926 6.0625 35.3628)" fill="#2FC773"/>
<rect x="9.16016" y="50.1072" width="81.9566" height="4.38221" rx="2.19111" transform="rotate(-10.2926 9.16016 50.1072)" fill="#2FC773"/>
<rect x="16.7676" y="84.6409" width="81.9566" height="4.38221" rx="2.19111" transform="rotate(-10.2926 16.7676 84.6409)" fill="#2FC773"/>
<rect x="10.6836" y="57.0457" width="81.9566" height="4.38221" rx="2.19111" transform="rotate(-10.2926 10.6836 57.0457)" fill="#2FC773"/>
<rect x="18.291" y="91.5791" width="67.4129" height="4.38221" rx="2.19111" transform="rotate(-10.2926 18.291 91.5791)" fill="#2FC773"/>
<rect x="12.1914" y="63.7278" width="62.3226" height="4.38221" rx="2.19111" transform="rotate(-10.2926 12.1914 63.7278)" fill="#2FC773"/>
<rect x="19.8008" y="98.2612" width="66.3826" height="4.38221" rx="2.19111" transform="rotate(-10.2926 19.8008 98.2612)" fill="#2FC773"/>
<rect x="13.7012" y="70.4094" width="36.1314" height="4.38221" rx="2.19111" transform="rotate(-10.2926 13.7012 70.4094)" fill="#2FC773"/>
<rect x="54.0964" y="3.08967" width="92.3448" height="109.237" rx="3.94155" transform="rotate(7.11562 54.0964 3.08967)" fill="#BDEDD5" stroke="#27955B" stroke-width="1.12616"/>
<rect x="57.2734" y="10.9578" width="52.2558" height="7.66836" rx="2.25231" transform="rotate(7.11562 57.2734 10.9578)" fill="#2FC773"/>
<rect x="55.8164" y="25.9536" width="81.9566" height="4.38221" rx="2.19111" transform="rotate(7.11562 55.8164 25.9536)" fill="#2FC773"/>
<rect x="52.7441" y="61.1816" width="81.9566" height="4.38221" rx="2.19111" transform="rotate(7.11562 52.7441 61.1816)" fill="#2FC773"/>
<rect x="55.1953" y="33.03" width="81.9566" height="4.38221" rx="2.19111" transform="rotate(7.11562 55.1953 33.03)" fill="#2FC773"/>
<rect x="52.123" y="68.2583" width="67.4129" height="4.38221" rx="2.19111" transform="rotate(7.11562 52.123 68.2583)" fill="#2FC773"/>
<rect x="54.6367" y="39.8569" width="62.3227" height="4.38221" rx="2.19111" transform="rotate(7.11562 54.6367 39.8569)" fill="#2FC773"/>
<rect x="51.5645" y="75.0854" width="66.3826" height="4.38221" rx="2.19111" transform="rotate(7.11562 51.5645 75.0854)" fill="#2FC773"/>
<rect x="54.0762" y="46.6841" width="36.1314" height="4.38221" rx="2.19111" transform="rotate(7.11562 54.0762 46.6841)" fill="#2FC773"/>
<rect x="116.176" y="0.804279" width="92.3448" height="109.237" rx="3.94155" transform="rotate(26.9585 116.176 0.804279)" fill="#BDEDD5" stroke="#27955B" stroke-width="1.12616"/>
<rect x="116.494" y="9.28418" width="52.2558" height="7.66836" rx="2.25231" transform="rotate(26.9585 116.494 9.28418)" fill="#36CA7C"/>
<rect x="110.033" y="22.8945" width="81.9566" height="4.38221" rx="2.19111" transform="rotate(26.9585 110.033 22.8945)" fill="#36CA7C"/>
<rect x="95.1855" y="54.9883" width="81.9566" height="4.38221" rx="2.19111" transform="rotate(26.9585 95.1855 54.9883)" fill="#36CA7C"/>
<rect x="107.045" y="29.3398" width="81.9566" height="4.38221" rx="2.19111" transform="rotate(26.9585 107.045 29.3398)" fill="#36CA7C"/>
<rect x="92.1992" y="61.4336" width="67.4129" height="4.38221" rx="2.19111" transform="rotate(26.9585 92.1992 61.4336)" fill="#36CA7C"/>
<rect x="104.201" y="35.5718" width="62.3226" height="4.38221" rx="2.19111" transform="rotate(26.9585 104.201 35.5718)" fill="#36CA7C"/>
<rect x="89.3555" y="67.6655" width="66.3826" height="4.38221" rx="2.19111" transform="rotate(26.9585 89.3555 67.6655)" fill="#36CA7C"/>
<rect x="101.357" y="41.8032" width="36.1314" height="4.38221" rx="2.19111" transform="rotate(26.9585 101.357 41.8032)" fill="#36CA7C"/>
</svg>
